<?xml version="1.0" encoding="UTF-8"?>
<svg xmlns="http://www.w3.org/2000/svg" viewBox="0 0 512 512" width="512" height="512">

<g transform="translate(256,256)">
  <circle r="90" fill="#FFC928"/>
  <!-- rays -->
  <rect x="-12" y="-200" width="24" height="60" rx="12" fill="#FFD85A" transform="rotate(0)"/>
<rect x="-12" y="-200" width="24" height="60" rx="12" fill="#FFD85A" transform="rotate(30)"/>
<rect x="-12" y="-200" width="24" height="60" rx="12" fill="#FFD85A" transform="rotate(60)"/>
<rect x="-12" y="-200" width="24" height="60" rx="12" fill="#FFD85A" transform="rotate(90)"/>
<rect x="-12" y="-200" width="24" height="60" rx="12" fill="#FFD85A" transform="rotate(120)"/>
<rect x="-12" y="-200" width="24" height="60" rx="12" fill="#FFD85A" transform="rotate(150)"/>
<rect x="-12" y="-200" width="24" height="60" rx="12" fill="#FFD85A" transform="rotate(180)"/>
<rect x="-12" y="-200" width="24" height="60" rx="12" fill="#FFD85A" transform="rotate(210)"/>
<rect x="-12" y="-200" width="24" height="60" rx="12" fill="#FFD85A" transform="rotate(240)"/>
<rect x="-12" y="-200" width="24" height="60" rx="12" fill="#FFD85A" transform="rotate(270)"/>
<rect x="-12" y="-200" width="24" height="60" rx="12" fill="#FFD85A" transform="rotate(300)"/>
<rect x="-12" y="-200" width="24" height="60" rx="12" fill="#FFD85A" transform="rotate(330)"/>
</g>

</svg>