<?xml version="1.0" encoding="UTF-8"?>
<svg xmlns="http://www.w3.org/2000/svg" viewBox="0 0 512 512" width="512" height="512">

<g>
  <g transform="translate(170,180)">
    <circle r="70" fill="#FFC928"/>
    <rect x="-8" y="-150" width="16" height="40" rx="8" fill="#FFD85A" transform="rotate(0)"/>
<rect x="-8" y="-150" width="16" height="40" rx="8" fill="#FFD85A" transform="rotate(30)"/>
<rect x="-8" y="-150" width="16" height="40" rx="8" fill="#FFD85A" transform="rotate(60)"/>
<rect x="-8" y="-150" width="16" height="40" rx="8" fill="#FFD85A" transform="rotate(90)"/>
<rect x="-8" y="-150" width="16" height="40" rx="8" fill="#FFD85A" transform="rotate(120)"/>
<rect x="-8" y="-150" width="16" height="40" rx="8" fill="#FFD85A" transform="rotate(150)"/>
<rect x="-8" y="-150" width="16" height="40" rx="8" fill="#FFD85A" transform="rotate(180)"/>
<rect x="-8" y="-150" width="16" height="40" rx="8" fill="#FFD85A" transform="rotate(210)"/>
<rect x="-8" y="-150" width="16" height="40" rx="8" fill="#FFD85A" transform="rotate(240)"/>
<rect x="-8" y="-150" width="16" height="40" rx="8" fill="#FFD85A" transform="rotate(270)"/>
<rect x="-8" y="-150" width="16" height="40" rx="8" fill="#FFD85A" transform="rotate(300)"/>
<rect x="-8" y="-150" width="16" height="40" rx="8" fill="#FFD85A" transform="rotate(330)"/>
  </g>
  
<g>
  <circle cx="210.0" cy="280" r="80.0" fill="#40A7FF"/>
  <circle cx="310.0" cy="260.0" r="100.0" fill="#40A7FF"/>
  <circle cx="380.0" cy="280" r="70.0" fill="#40A7FF"/>
  <rect x="140.0" y="280" width="300.0" height="90.0" rx="45.0" fill="#40A7FF"/>
</g>
</g>

</svg>